<svg xmlns="http://www.w3.org/2000/svg" viewBox="0 0 262.99 238"><defs><style>.cls-1{fill:#ffd015;}.cls-2{fill:#fff;}</style></defs><title>isotipo</title><g id="Capa_2" data-name="Capa 2"><g id="Capa_1-2" data-name="Capa 1"><path class="cls-1" d="M178.14,0H84.86a38.21,38.21,0,0,0-33.1,19.11L5.12,99.89a38.21,38.21,0,0,0,0,38.22l46.64,80.78A38.21,38.21,0,0,0,84.86,238h93.28a38.19,38.19,0,0,0,33.09-19.11l46.64-80.78a38.21,38.21,0,0,0,0-38.22L211.23,19.11A38.19,38.19,0,0,0,178.14,0Z"/><rect class="cls-2" x="54.25" y="106" width="54" height="84"/><rect class="cls-2" x="153.25" y="106" width="54" height="84"/><polygon class="cls-2" points="207.25 83.01 130.75 40.87 54.25 83.01 54.25 106 207.25 106 207.25 83.01"/></g></g></svg>