<svg xmlns="http://www.w3.org/2000/svg" viewBox="0 0 29.26 28.47"><defs><style>.cls-1{fill:none;stroke:#3a2b01;stroke-linecap:round;stroke-linejoin:round;stroke-width:0.8px;}</style></defs><title>registrate</title><g id="Capa_2" data-name="Capa 2"><g id="Capa_1-2" data-name="Capa 1"><g id="Icons"><circle class="cls-1" cx="14.63" cy="8.7" r="8.3"/><path class="cls-1" d="M9.06,6.51a5.12,5.12,0,0,1,6-4"/><path class="cls-1" d="M.4,28.07A8.1,8.1,0,0,1,8.48,20h12.3a8.1,8.1,0,0,1,8.08,8.08"/><path class="cls-1" d="M8.9,8.17a7.06,7.06,0,0,0,0,1.65"/><circle class="cls-1" cx="14.63" cy="8.7" r="8.3"/><path class="cls-1" d="M9.06,6.51a5.12,5.12,0,0,1,6-4"/><path class="cls-1" d="M.4,28.07A8.1,8.1,0,0,1,8.48,20h12.3a8.1,8.1,0,0,1,8.08,8.08"/><path class="cls-1" d="M8.9,8.17a7.06,7.06,0,0,0,0,1.65"/></g></g></g></svg>